<mxfile host="app.diagrams.net" agent="Mozilla/5.0 (X11; Linux x86_64) AppleWebKit/537.36 (KHTML, like Gecko) Chrome/128.0.0.0 Safari/537.36" version="24.7.16">
  <diagram name="Page-1" id="GMamfHW5jXmlBtCNzQ31">
    <mxGraphModel dx="1368" dy="788" grid="1" gridSize="10" guides="1" tooltips="1" connect="1" arrows="1" fold="1" page="1" pageScale="1" pageWidth="850" pageHeight="1100" math="0" shadow="0">
      <root>
        <mxCell id="0" />
        <mxCell id="1" parent="0" />
        <mxCell id="xztRVXSVyiQzyeh7jRuF-3" value="Region" style="shape=mxgraph.ibm.box;prType=region;fontStyle=0;verticalAlign=top;align=left;spacingLeft=32;spacingTop=4;fillColor=none;rounded=0;whiteSpace=wrap;html=1;strokeColor=#919191;strokeWidth=7;dashed=0;container=1;spacing=-4;collapsible=0;expand=0;recursiveResize=0;" vertex="1" parent="1">
          <mxGeometry x="40" y="95" width="760" height="910" as="geometry" />
        </mxCell>
        <mxCell id="xztRVXSVyiQzyeh7jRuF-8" value="&lt;b&gt;&lt;font style=&quot;font-size: 14px;&quot;&gt;&lt;i&gt;Static IP&lt;/i&gt;&lt;/font&gt;&lt;/b&gt;" style="rounded=0;whiteSpace=wrap;html=1;strokeWidth=3;" vertex="1" parent="xztRVXSVyiQzyeh7jRuF-3">
          <mxGeometry x="325" y="85" width="120" height="60" as="geometry" />
        </mxCell>
        <mxCell id="xztRVXSVyiQzyeh7jRuF-9" value="&lt;b&gt;&lt;i&gt;Internet Gateway&lt;/i&gt;&lt;/b&gt;" style="sketch=0;outlineConnect=0;fontColor=#232F3E;gradientColor=none;fillColor=#8C4FFF;strokeColor=none;dashed=0;verticalLabelPosition=bottom;verticalAlign=top;align=center;html=1;fontSize=12;fontStyle=0;aspect=fixed;pointerEvents=1;shape=mxgraph.aws4.internet_gateway;" vertex="1" parent="xztRVXSVyiQzyeh7jRuF-3">
          <mxGeometry x="346" y="205" width="78" height="78" as="geometry" />
        </mxCell>
        <mxCell id="xztRVXSVyiQzyeh7jRuF-12" value="" style="endArrow=classic;html=1;rounded=0;exitX=0.5;exitY=1;exitDx=0;exitDy=0;" edge="1" parent="xztRVXSVyiQzyeh7jRuF-3" source="xztRVXSVyiQzyeh7jRuF-8">
          <mxGeometry width="50" height="50" relative="1" as="geometry">
            <mxPoint x="355" y="205" as="sourcePoint" />
            <mxPoint x="385" y="205" as="targetPoint" />
          </mxGeometry>
        </mxCell>
        <mxCell id="xztRVXSVyiQzyeh7jRuF-17" value="Availability Zone" style="fillColor=none;strokeColor=#147EBA;dashed=1;verticalAlign=top;fontStyle=0;fontColor=#147EBA;whiteSpace=wrap;html=1;" vertex="1" parent="xztRVXSVyiQzyeh7jRuF-3">
          <mxGeometry x="120" y="330" width="540" height="450" as="geometry" />
        </mxCell>
        <mxCell id="xztRVXSVyiQzyeh7jRuF-20" value="Amazon EC2" style="sketch=0;outlineConnect=0;fontColor=#232F3E;gradientColor=none;strokeColor=#ffffff;fillColor=#232F3E;dashed=0;verticalLabelPosition=middle;verticalAlign=bottom;align=center;html=1;whiteSpace=wrap;fontSize=10;fontStyle=1;spacing=3;shape=mxgraph.aws4.productIcon;prIcon=mxgraph.aws4.ec2;" vertex="1" parent="xztRVXSVyiQzyeh7jRuF-3">
          <mxGeometry x="152" y="385" width="80" height="100" as="geometry" />
        </mxCell>
        <mxCell id="xztRVXSVyiQzyeh7jRuF-21" value="Amazon EC2" style="sketch=0;outlineConnect=0;fontColor=#232F3E;gradientColor=none;strokeColor=#ffffff;fillColor=#232F3E;dashed=0;verticalLabelPosition=middle;verticalAlign=bottom;align=center;html=1;whiteSpace=wrap;fontSize=10;fontStyle=1;spacing=3;shape=mxgraph.aws4.productIcon;prIcon=mxgraph.aws4.ec2;" vertex="1" parent="xztRVXSVyiQzyeh7jRuF-3">
          <mxGeometry x="470" y="385" width="80" height="100" as="geometry" />
        </mxCell>
        <mxCell id="xztRVXSVyiQzyeh7jRuF-22" value="Amazon EC2" style="sketch=0;outlineConnect=0;fontColor=#232F3E;gradientColor=none;strokeColor=#ffffff;fillColor=#232F3E;dashed=0;verticalLabelPosition=middle;verticalAlign=bottom;align=center;html=1;whiteSpace=wrap;fontSize=10;fontStyle=1;spacing=3;shape=mxgraph.aws4.productIcon;prIcon=mxgraph.aws4.ec2;" vertex="1" parent="xztRVXSVyiQzyeh7jRuF-3">
          <mxGeometry x="305" y="645" width="80" height="100" as="geometry" />
        </mxCell>
        <mxCell id="xztRVXSVyiQzyeh7jRuF-23" value="Jenkins" style="rounded=1;whiteSpace=wrap;html=1;" vertex="1" parent="xztRVXSVyiQzyeh7jRuF-3">
          <mxGeometry x="242" y="415" width="54" height="25" as="geometry" />
        </mxCell>
        <mxCell id="xztRVXSVyiQzyeh7jRuF-24" value="&lt;div style=&quot;font-size: 11px;&quot;&gt;&lt;b style=&quot;&quot;&gt;&lt;font style=&quot;font-size: 11px;&quot;&gt;Micro K8s&lt;/font&gt;&lt;/b&gt;&lt;/div&gt;&lt;b style=&quot;font-size: 11px;&quot;&gt;&lt;font style=&quot;font-size: 11px;&quot;&gt;Env - Dev,Test&amp;amp;Pre-Prod&lt;/font&gt;&lt;/b&gt;" style="rounded=1;whiteSpace=wrap;html=1;" vertex="1" parent="xztRVXSVyiQzyeh7jRuF-3">
          <mxGeometry x="560" y="395" width="80" height="75" as="geometry" />
        </mxCell>
        <mxCell id="xztRVXSVyiQzyeh7jRuF-4" value="VPC" style="points=[[0,0],[0.25,0],[0.5,0],[0.75,0],[1,0],[1,0.25],[1,0.5],[1,0.75],[1,1],[0.75,1],[0.5,1],[0.25,1],[0,1],[0,0.75],[0,0.5],[0,0.25]];outlineConnect=0;gradientColor=none;html=1;whiteSpace=wrap;fontSize=12;fontStyle=0;container=1;pointerEvents=0;collapsible=0;recursiveResize=0;shape=mxgraph.aws4.group;grIcon=mxgraph.aws4.group_vpc2;strokeColor=#8C4FFF;fillColor=none;verticalAlign=top;align=left;spacingLeft=30;fontColor=#AAB7B8;dashed=0;strokeWidth=7;" vertex="1" parent="1">
          <mxGeometry x="140" y="160" width="580" height="770" as="geometry" />
        </mxCell>
      </root>
    </mxGraphModel>
  </diagram>
</mxfile>
